<?xml version="1.0" encoding="UTF-8"?>
<svg version="1.1" xmlns="http://www.w3.org/2000/svg" width="463" height="449">
<path d="M0 0 C152.79 0 305.58 0 463 0 C463 148.17 463 296.34 463 449 C310.21 449 157.42 449 0 449 C0 300.83 0 152.66 0 0 Z " fill="#00337D" transform="translate(0,0)"/>
<path d="M0 0 C0 32.01 0 64.02 0 97 C-3.85277029 95.07361485 -6.08480717 93.23610522 -9.1875 90.3125 C-13.93189874 85.91882966 -18.81814232 81.86400252 -24 78 C-27.245613 79.42074324 -29.3626159 81.13762681 -31.828125 83.66796875 C-32.54613281 84.39693359 -33.26414062 85.12589844 -34.00390625 85.87695312 C-35.11572266 87.02067383 -35.11572266 87.02067383 -36.25 88.1875 C-41.64347773 93.71030624 -47.1019628 99.01649485 -53 104 C-53.64743164 104.54857666 -54.29486328 105.09715332 -54.96191406 105.66235352 C-78.02622228 125.06407695 -102.50967731 142.54931286 -129 157 C-129.9060498 157.49483887 -130.81209961 157.98967773 -131.74560547 158.49951172 C-161.43925996 174.59933152 -193.45317779 187.02281158 -226.625 193.75 C-227.58792969 193.94835449 -228.55085938 194.14670898 -229.54296875 194.35107422 C-245.22763256 197.40290045 -260.68032972 198.29280531 -276.625 198.125 C-278.32551543 198.11492817 -280.02603679 198.1058099 -281.7265625 198.09765625 C-285.81785983 198.07602587 -289.90886048 198.04173977 -294 198 C-290.69299639 196.21955208 -287.60357454 195.46331732 -283.91186523 194.75976562 C-219.73004105 182.17296663 -158.23975449 147.70766982 -110.25390625 104.03515625 C-108.23900961 102.21581284 -106.19105119 100.44809804 -104.125 98.6875 C-95.80446943 91.4302421 -88.12718694 83.42171682 -81 75 C-80.02969372 73.88060124 -79.05823031 72.76220498 -78.0859375 71.64453125 C-77.01543969 70.4090147 -75.94512858 69.17333637 -74.875 67.9375 C-74.37162109 67.3595166 -73.86824219 66.7815332 -73.34960938 66.18603516 C-67.08874656 59.72607933 -67.08874656 59.72607933 -64 52 C-65.98738163 50.46382491 -65.98738163 50.46382491 -68.56640625 48.91796875 C-69.52740234 48.31533203 -70.48839844 47.71269531 -71.47851562 47.09179688 C-72.49623047 46.46337891 -73.51394531 45.83496094 -74.5625 45.1875 C-80.83644601 41.28108078 -87.04656214 37.38366743 -93 33 C-90.20715192 30.73014624 -87.71251566 29.35667762 -84.31201172 28.19750977 C-83.37985336 27.87570236 -82.44769501 27.55389496 -81.48728943 27.22233582 C-80.47828079 26.88212906 -79.46927216 26.5419223 -78.4296875 26.19140625 C-77.3718959 25.82811722 -76.31410431 25.46482819 -75.22425842 25.0905304 C-71.77673044 23.90790488 -68.32592865 22.73516099 -64.875 21.5625 C-61.32706629 20.34880972 -57.77996201 19.13271909 -54.23295593 17.9163208 C-51.8658083 17.1046087 -49.49838635 16.29369613 -47.13069153 15.48358154 C-40.10517772 13.07712687 -33.09307641 10.6371002 -26.09765625 8.14453125 C-25.29654419 7.85931107 -24.49543213 7.57409088 -23.67004395 7.28022766 C-20.70866803 6.22447877 -17.74793211 5.1670859 -14.79022217 4.10110474 C-12.82892913 3.39434313 -10.86581193 2.69287818 -8.90234375 1.9921875 C-7.82460693 1.60401855 -6.74687012 1.21584961 -5.63647461 0.81591797 C-3 0 -3 0 0 0 Z " fill="#FCFCFD" transform="translate(381,37)"/>
<path d="M0 0 C16.83 0 33.66 0 51 0 C51 58.08 51 116.16 51 176 C34.17 176 17.34 176 0 176 C0 117.92 0 59.84 0 0 Z " fill="#FCFDFD" transform="translate(330,173)"/>
<path d="M0 0 C18.15 0 36.3 0 55 0 C55 41.58 55 83.16 55 126 C36.85 126 18.7 126 0 126 C0 84.42 0 42.84 0 0 Z " fill="#FBFCFD" transform="translate(247,223)"/>
<path d="M0 0 C17.16 0 34.32 0 52 0 C52 31.68 52 63.36 52 96 C34.84 96 17.68 96 0 96 C0 64.32 0 32.64 0 0 Z " fill="#FEFEFE" transform="translate(166,253)"/>
<path d="M0 0 C17.49 0 34.98 0 53 0 C53 28.05 53 56.1 53 85 C35.51 85 18.02 85 0 85 C0 56.95 0 28.9 0 0 Z " fill="#FBFBFD" transform="translate(84,264)"/>
<path d="M0 0 C6.39644049 5.37882496 10.97737896 12.26186836 12.05102539 20.66992188 C12.187217 23.18407416 12.2174286 25.66990632 12.1875 28.1875 C12.18065186 29.07010498 12.17380371 29.95270996 12.16674805 30.86206055 C12.00633767 37.36318678 11.14584492 42.66396588 7.75 48.3125 C7.41097656 48.9621875 7.07195312 49.611875 6.72265625 50.28125 C2.97314945 56.57935394 -3.53030397 59.07260132 -10.25 61.3125 C-30.14627989 62.71505749 -30.14627989 62.71505749 -38.25 56.3125 C-45.58378037 49.62252477 -48.87690603 42.34928283 -49.48828125 32.45703125 C-49.70344466 23.95709844 -49.50570984 16.91939599 -45.25 9.3125 C-44.693125 8.24 -44.13625 7.1675 -43.5625 6.0625 C-32.43827255 -7.16631102 -14.55902146 -7.55949191 0 0 Z " fill="#F8F9FB" transform="translate(153.25,46.6875)"/>
<path d="M0 0 C4.29 0 8.58 0 13 0 C13.01458252 1.30146973 13.02916504 2.60293945 13.04418945 3.94384766 C13.10228934 8.78591992 13.17952191 13.62753285 13.26245117 18.46923828 C13.29564549 20.56226124 13.32369445 22.65537253 13.34643555 24.74853516 C13.38008231 27.76242612 13.43240393 30.77551163 13.48828125 33.7890625 C13.49467117 34.72054108 13.5010611 35.65201965 13.50764465 36.61172485 C13.62396144 41.78558805 14.04477223 45.5608391 17 50 C21.66165932 53.10777288 26.54471087 52.73620636 32 52 C35.48242391 49.47353559 36.65226822 48.04319535 38 44 C38.11349848 42.54293083 38.17601475 41.08155041 38.20532227 39.62036133 C38.22526749 38.73967484 38.24521271 37.85898834 38.26576233 36.95161438 C38.29083107 35.53117073 38.29083107 35.53117073 38.31640625 34.08203125 C38.33718735 33.10965012 38.35796844 32.13726898 38.37937927 31.13542175 C38.44478748 28.02785335 38.50371929 24.92020015 38.5625 21.8125 C38.60569351 19.70637142 38.64930807 17.60025144 38.69335938 15.49414062 C38.80045999 10.32951409 38.90175219 5.16480222 39 0 C43.29 0 47.58 0 52 0 C52.09922675 6.68940961 52.17163877 13.3783863 52.21972656 20.06835938 C52.23978317 22.34187284 52.26703538 24.6153351 52.30175781 26.88867188 C52.35053712 30.16549349 52.37302897 33.44163025 52.390625 36.71875 C52.41127014 37.72740112 52.43191528 38.73605225 52.45318604 39.77526855 C52.45549767 47.12348238 51.07414782 52.10760885 46.4296875 57.98828125 C38.98826553 64.32657786 30.71813257 65.60024902 21.12109375 65.3515625 C13.96746543 64.54577208 8.55866242 61.6006424 4 56 C-0.38174283 49.86951029 -0.53837488 45.009691 -0.390625 37.59765625 C-0.38496521 36.51995468 -0.37930542 35.44225311 -0.37347412 34.33189392 C-0.3511816 30.90830032 -0.30099671 27.48577436 -0.25 24.0625 C-0.22992587 21.73373913 -0.2116767 19.40496177 -0.1953125 17.07617188 C-0.15133986 11.38370665 -0.08236011 5.69203401 0 0 Z " fill="#64B5ED" transform="translate(163,120)"/>
<path d="M0 0 C12.54 0 25.08 0 38 0 C38 3.96 38 7.92 38 12 C30.08 12 22.16 12 14 12 C14 16.29 14 20.58 14 25 C21.26 25 28.52 25 36 25 C36 28.96 36 32.92 36 37 C28.74 37 21.48 37 14 37 C14 42.28 14 47.56 14 53 C21.92 53 29.84 53 38 53 C38 56.96 38 60.92 38 65 C25.46 65 12.92 65 0 65 C0 43.55 0 22.1 0 0 Z " fill="#EDF0F6" transform="translate(178,43)"/>
<path d="M0 0 C12.21 0 24.42 0 37 0 C37 3.96 37 7.92 37 12 C29.41 12 21.82 12 14 12 C14 16.29 14 20.58 14 25 C20.93 25 27.86 25 35 25 C35 28.96 35 32.92 35 37 C28.07 37 21.14 37 14 37 C14 42.28 14 47.56 14 53 C21.59 53 29.18 53 37 53 C37 56.96 37 60.92 37 65 C24.79 65 12.58 65 0 65 C0 43.55 0 22.1 0 0 Z " fill="#F0F3F7" transform="translate(229,43)"/>
<path d="M0 0 C3.3 0 6.6 0 10 0 C10.98167733 3.87699447 11.96016205 7.75477972 12.93579102 11.63330078 C13.26761242 12.95057523 13.60028099 14.2676366 13.93383789 15.58447266 C14.41519292 17.48542931 14.89317442 19.38723917 15.37109375 21.2890625 C15.65911865 22.43068848 15.94714355 23.57231445 16.24389648 24.74853516 C16.95864156 27.8221467 17.51890233 30.88215671 18 34 C19.12990635 30.18893696 20.25301809 26.37590282 21.375 22.5625 C21.69210938 21.49322266 22.00921875 20.42394531 22.3359375 19.32226562 C23.75276842 14.49618531 25.11313759 9.69758311 26.1640625 4.77734375 C27 1 27 1 28 0 C29.68608966 -0.07205511 31.37500659 -0.08386068 33.0625 -0.0625 C33.98160156 -0.05347656 34.90070313 -0.04445313 35.84765625 -0.03515625 C36.55792969 -0.02355469 37.26820313 -0.01195312 38 0 C42.4921875 15.72265625 42.4921875 15.72265625 43.27636719 18.48876953 C43.86773154 20.54098739 44.49515396 22.58278525 45.1328125 24.62109375 C46.1871189 28.72908941 46.63656412 32.78223102 47 37 C47.30236572 35.69180298 47.30236572 35.69180298 47.61083984 34.35717773 C48.36608257 31.09349673 49.12293874 27.83019839 49.88085938 24.56713867 C50.20734419 23.1600601 50.53320222 21.75283593 50.85839844 20.34545898 C51.32839238 18.31194225 51.8007062 16.27897565 52.2734375 14.24609375 C52.55622559 13.02591553 52.83901367 11.8057373 53.13037109 10.54858398 C54.00012639 6.99948424 54.97348795 3.50626626 56 0 C59.3 0 62.6 0 66 0 C64.48652834 10.68128278 61.74516354 20.87386946 58.875 31.25 C58.40179985 32.97771571 57.92913955 34.70557937 57.45703125 36.43359375 C56.31089799 40.62412584 55.15749955 44.81259391 54 49 C49.71 49 45.42 49 41 49 C40.67386719 47.62328125 40.34773438 46.2465625 40.01171875 44.828125 C37.72844243 35.20480998 35.44085267 25.5848117 33 16 C30.58151948 24.8377453 28.31243879 33.68547608 26.30761719 42.62670898 C25.10562408 47.89437592 25.10562408 47.89437592 24 49 C21.98035801 49.07244053 19.95832876 49.08377188 17.9375 49.0625 C16.83277344 49.05347656 15.72804687 49.04445313 14.58984375 49.03515625 C13.73519531 49.02355469 12.88054687 49.01195312 12 49 C10.58925046 44.91453678 9.40575996 40.83839544 8.37890625 36.640625 C8.08306641 35.44179688 7.78722656 34.24296875 7.48242188 33.0078125 C6.87297026 30.51824792 6.26359429 28.02866482 5.65429688 25.5390625 C4.12636445 19.34778753 2.54174145 13.22871714 0.53100586 7.17480469 C0 5 0 5 0 0 Z " fill="#62B2EB" transform="translate(126,367)"/>
<path d="M0 0 C0.495 0.28875 0.99 0.5775 1.5 0.875 C0.94894091 4.8242568 0.11064629 8.22420174 -1.5 11.875 C-7.03741497 11.11989796 -7.03741497 11.11989796 -9.42578125 9.85546875 C-13.00414029 8.16400337 -16.62757732 8.43085116 -20.5 8.875 C-25.3451038 10.92071049 -28.24680895 14.38652063 -30.59375 19.046875 C-31.74391089 22.63617019 -31.8299249 26.02107114 -31.8125 29.75 C-31.82861328 30.43191406 -31.84472656 31.11382812 -31.86132812 31.81640625 C-31.86733108 38.11950758 -30.13787767 42.70087769 -26.3046875 47.7890625 C-22.71985719 50.45521763 -19.90998156 50.48227003 -15.625 50.25 C-14.94308594 50.23582031 -14.26117188 50.22164062 -13.55859375 50.20703125 C-9.14436956 50.08091056 -4.85871847 49.56920842 -0.5 48.875 C-0.5 52.505 -0.5 56.135 -0.5 59.875 C-8.84520692 64.13638225 -19.67446689 64.63133318 -28.6484375 61.92578125 C-36.65341303 58.11560521 -41.03145405 52.87234613 -44.5 44.875 C-44.85964844 44.15699219 -45.21929687 43.43898437 -45.58984375 42.69921875 C-48.45286888 33.81523947 -47.8538864 21.18672514 -43.68359375 12.875 C-43.29300781 12.215 -42.90242188 11.555 -42.5 10.875 C-41.99146484 9.9159375 -41.99146484 9.9159375 -41.47265625 8.9375 C-33.01811313 -5.02302672 -13.66565905 -6.14954657 0 0 Z " fill="#62B3EB" transform="translate(149.5,122.125)"/>
<path d="M0 0 C13 0 13 0 15.8515625 2.61328125 C16.78540039 4.37084961 16.78540039 4.37084961 17.625 6.3125 C18.32283892 7.67518666 19.02213379 9.03712843 19.72265625 10.3984375 C20.0798877 11.13416992 20.43711914 11.86990234 20.80517578 12.62792969 C22.52710047 16.0464463 24.46592091 19.32646964 26.40795898 22.62353516 C28.62938676 26.4016341 30.81062549 30.20323661 33 34 C33.33 22.78 33.66 11.56 34 0 C37.3 0 40.6 0 44 0 C44 16.5 44 33 44 50 C39.38 50 34.76 50 30 50 C20 32.5 20 32.5 10 15 C9.67 26.22 9.34 37.44 9 49 C6.03 49 3.06 49 0 49 C0 32.83 0 16.66 0 0 Z " fill="#61B1EA" transform="translate(222,367)"/>
<path d="M0 0 C-0.66 2.31 -1.32 4.62 -2 7 C-5.28696233 7.79953138 -6.71023192 8.09658936 -10 7 C-14.69131123 6.45491431 -18.10330648 6.55165324 -22.375 8.6875 C-26.15640336 12.0187363 -27.81652071 14.49414747 -28.43359375 19.55859375 C-28.43488281 20.83863281 -28.43617188 22.11867188 -28.4375 23.4375 C-28.45683594 24.71496094 -28.47617187 25.99242187 -28.49609375 27.30859375 C-27.92635583 31.54798223 -26.67132549 33.70188306 -24 37 C-21.29816945 38.35091528 -18.88191794 38.33858058 -15.875 38.5625 C-14.77929688 38.64628906 -13.68359375 38.73007812 -12.5546875 38.81640625 C-11.29011719 38.90728516 -11.29011719 38.90728516 -10 39 C-10 35.7 -10 32.4 -10 29 C-12.97 29 -15.94 29 -19 29 C-19 26.03 -19 23.06 -19 20 C-12.73 20 -6.46 20 0 20 C0 28.58 0 37.16 0 46 C-21.95721315 50.39144263 -21.95721315 50.39144263 -29.625 45.875 C-31.421875 44.484375 -31.421875 44.484375 -33 43 C-33.50015625 42.53078125 -34.0003125 42.0615625 -34.515625 41.578125 C-40.63066404 35.04135913 -40.61332568 26.33162644 -40.37109375 17.890625 C-39.76228971 11.50779528 -37.7153001 7.57033541 -33.09765625 3.19921875 C-23.18340186 -4.77404917 -11.4744671 -4.86795574 0 0 Z " fill="#62B2EB" transform="translate(316,369)"/>
<path d="M0 0 C4.77121826 2.40262489 7.68455639 5.38320682 10.09375 10.17578125 C11.23792115 13.74145256 11.34282139 17.10592665 11.3125 20.8125 C11.30404053 21.880448 11.30404053 21.880448 11.29541016 22.9699707 C11.15718048 28.94464059 10.82561889 34.01614645 6.53515625 38.546875 C1.59729819 42.84486392 -1.7922709 43.41059873 -8.16796875 43.34375 C-12.39550263 42.83061485 -15.23883158 41.22636528 -18 38 C-21.51921617 32.64251091 -21.48526892 27.75943122 -21.4375 21.5625 C-21.4674707 20.18868164 -21.4674707 20.18868164 -21.49804688 18.78710938 C-21.49271845 11.36461577 -19.73127468 7.32874101 -15 1.5625 C-10.25074836 -0.91106856 -5.24363243 -0.77399362 0 0 Z " fill="#04357E" transform="translate(140,54)"/>
<path d="M0 0 C-0.54723683 3.37462715 -1.0549 5.08235 -3 8 C-3.99 7.835 -4.98 7.67 -6 7.5 C-10.05668759 6.92991559 -13.90383459 6.7917204 -18 7 C-20.24748441 8.80221125 -20.24748441 8.80221125 -20.125 11.3125 C-18.36035057 15.52805142 -14.88440782 16.85018119 -11 19 C-9.55565243 19.84253608 -8.11781903 20.69636236 -6.6875 21.5625 C-6.05199219 21.93503906 -5.41648437 22.30757813 -4.76171875 22.69140625 C-1.73304273 24.94108799 -0.17561382 26.84473656 0.3984375 30.62109375 C0.31555478 40.58083413 0.31555478 40.58083413 -3 44 C-9.99944577 48.98037488 -17.61876398 49.01341743 -26 48 C-29.4609375 46.47265625 -29.4609375 46.47265625 -32 45 C-32 42.03 -32 39.06 -32 36 C-30.9275 36.33 -29.855 36.66 -28.75 37 C-23.24454821 38.39366015 -17.645192 38.38838921 -12 38 C-10.78384032 36.95533891 -10.78384032 36.95533891 -10.4375 34.75 C-10.70538643 31.987565 -10.70538643 31.987565 -12.46875 30.76953125 C-14.61583475 29.45316381 -16.79742835 28.22122784 -19 27 C-29.25509503 20.93267689 -29.25509503 20.93267689 -31 15 C-31.7127752 10.94609104 -31.90628222 7.59505671 -29.828125 3.9375 C-21.82334215 -5.96532415 -10.91162498 -3.90032552 0 0 Z " fill="#62B2EA" transform="translate(357,369)"/>
<path d="M0 0 C3.3 0 6.6 0 10 0 C10 16.17 10 32.34 10 49 C6.7 49 3.4 49 0 49 C0 32.83 0 16.66 0 0 Z " fill="#65B6EE" transform="translate(199,367)"/>
<path d="M0 0 C0 3.58912412 -0.66436554 4.10857029 -3 6.6875 C-3.556875 7.31011719 -4.11375 7.93273438 -4.6875 8.57421875 C-5.120625 9.04472656 -5.55375 9.51523438 -6 10 C-6.33 9.01 -6.66 8.02 -7 7 C-2.88888889 1.44444444 -2.88888889 1.44444444 0 0 Z " fill="#153F84" transform="translate(127,55)"/>
</svg>
